<?xml version="1.0" encoding="UTF-8" standalone="no"?>
<!-- Created with Inkscape (http://www.inkscape.org/) -->

<svg
   width="1000"
   height="1000"
   viewBox="0 0 264.58333 264.58333"
   version="1.1"
   id="svg539"
   xmlns="http://www.w3.org/2000/svg"
   xmlns:svg="http://www.w3.org/2000/svg">
  <defs
     id="defs536" />
  <g
     id="layer1"
     transform="translate(-14.171631,-72.876895)">
    <g
       id="g912">
      <path
         id="path2"
         class="cls-1"
         d="m 46.479839,87.298798 c 0.470915,-1.997882 3.696079,-2.697135 4.752098,-0.841963 a 9.9037764,9.9037764 0 0 1 0.956129,5.223029 c 0.599363,0 1.213,0 1.812363,0 1.070295,-1.341431 1.155919,-3.110986 1.72674,-4.666479 0.399558,-0.884772 1.555493,-1.926525 2.497352,-1.170185 a 3.9672189,3.9672189 0 0 1 1.013208,3.068172 c 0,-0.313962 0,-0.613635 0.128423,-0.927587 0.342494,1.912259 0.899049,3.795974 1.084566,5.708228 0,3.353585 0.299669,6.892687 -1.141647,9.989407 a 2.99682,2.99682 0 0 1 -3.667537,1.88371 c -1.041752,-0.35679 -1.427055,-1.51268 -1.655387,-2.46881 a 20.264211,20.264211 0 0 1 -0.670716,-4.966156 c -0.485208,-0.08565 -0.956129,-0.142714 -1.427055,-0.199779 a 25.943899,25.943899 0 0 1 -0.585093,5.708225 2.7684909,2.7684909 0 0 1 -3.13953,2.04069 4.695018,4.695018 0 0 1 -2.254746,-3.26795 C 44.553298,97.430917 45.295372,92.179344 46.536908,87.256 Z m 55.983451,-0.214071 c 1.68393,-1.427062 4.0243,-1.170192 6.06499,-1.184463 3.73889,-0.142715 7.53487,3.3964 6.90696,7.249454 a 5.0232412,5.0232412 0 0 1 -2.72568,3.781702 c 1.213,1.997877 2.85412,3.95294 2.85412,6.40749 a 2.697138,2.697138 0 0 1 -3.85306,1.89798 13.285901,13.285901 0 0 1 -4.65221,-4.28117 7.8345438,7.8345438 0 0 1 -0.82769,4.52377 2.2832914,2.2832914 0 0 1 -3.38212,0.19978 5.5940643,5.5940643 0 0 1 -1.42706,-2.85411 35.348205,35.348205 0 0 1 -0.29967,-9.504201 c 0.37102,-2.126314 -0.24261,-4.609394 1.34143,-6.350405 z m 4.03857,4.281171 c 0,0.470915 -0.17124,0.998937 0.0999,1.427055 0.42814,1.07029 2.38319,0.585092 2.1834,-0.599364 -0.19978,-1.184456 -1.39852,-0.95613 -2.22621,-0.784882 z M 30.582418,86.513915 a 22.062304,22.062304 0 0 1 7.977251,-0.599364 8.7335898,8.7335898 0 0 1 5.208763,2.254753 2.8541143,2.8541143 0 0 1 0.542278,2.968276 6.1648869,6.1648869 0 0 1 -5.308652,2.426 c -0.713525,2.968277 -0.356788,6.093535 -1.170185,9.03327 -0.342494,1.12738 -1.056025,2.61152 -2.454543,2.48308 A 3.1252551,3.1252551 0 0 1 32.937065,103.79558 6.6786275,6.6786275 0 0 1 31.3673,99.514405 26.900028,26.900028 0 0 1 31.724088,93.36379 c -1.741011,0.256843 -3.596184,1.01321 -5.265839,0.09989 a 2.2547503,2.2547503 0 0 1 -1.184461,-3.096717 c 0.899049,-2.154856 3.225152,-3.125251 5.308652,-3.795968 z m 34.720304,0.271136 c 1.170185,-0.899042 2.725679,-0.556548 4.095652,-0.642172 2.054963,0.09989 4.281173,-0.271136 6.122079,0.841963 a 2.3546443,2.3546443 0 0 1 1.27008,2.582975 2.6685969,2.6685969 0 0 1 -2.012154,1.427055 19.850365,19.850365 0 0 1 -5.59406,0.156953 c 0,0.513742 0,1.027482 0.114188,1.541222 1.555492,0.371026 3.51056,0.528033 4.42388,2.054962 a 2.1548563,2.1548563 0 0 1 -1.098833,3.053901 9.2901421,9.2901421 0 0 1 -4.109925,0.485208 c 0.09989,0.55655 0,1.27008 0.742069,1.427056 a 22.832914,22.832914 0 0 1 6.221966,0.927586 2.4688089,2.4688089 0 0 1 0.442384,4.28117 12.843514,12.843514 0 0 1 -7.492047,1.27008 7.5063204,7.5063204 0 0 1 -5.223029,-2.85411 6.1078048,6.1078048 0 0 1 -0.984673,-2.72568 c -0.18554,-3.910137 -0.228311,-7.962976 1.427055,-11.616246 a 5.2943819,5.2943819 0 0 1 1.712469,-2.34037 z m 54.456498,-0.256896 a 2.8541143,2.8541143 0 0 1 3.83879,2.411728 c 0.15695,3.496289 0,7.006849 0,10.503139 -0.14272,1.769558 0,3.767428 -1.25581,5.208758 a 2.0692329,2.0692329 0 0 1 -2.58298,0.78488 4.2811714,4.2811714 0 0 1 -2.14058,-4.08138 103.13342,103.13342 0 0 1 0.34249,-12.058632 3.2679609,3.2679609 0 0 1 1.85518,-2.768493 z m -28.954988,0.271136 c 1.427061,-0.214072 2.540165,0.642173 3.767431,1.113104 a 8.2198492,8.2198492 0 0 1 4.281172,3.638994 10.717199,10.717199 0 0 1 0.870506,6.607275 8.1342258,8.1342258 0 0 1 -4.281173,5.708236 8.3625548,8.3625548 0 0 1 -4.83772,0.51374 8.8762953,8.8762953 0 0 1 -5.99364,-4.28117 10.531682,10.531682 0 0 1 0.356733,-9.09036 7.9915197,7.9915197 0 0 1 5.708232,-4.281171 z m -0.613635,8.562343 c -0.08565,1.098834 0.941857,1.741011 1.783826,2.169129 0.499448,-0.356786 1.227265,-0.556555 1.427055,-1.227271 0.156954,-0.984673 -0.570821,-2.254752 -1.683926,-2.126314 a 1.1701868,1.1701868 0 0 0 -1.46987,1.170185 z m 52.501443,-8.462448 a 2.297562,2.297562 0 0 1 3.5391,1.783821 c 0.0714,4.281171 0.0714,8.719318 -0.0856,13.086113 -0.17125,0.95613 -0.35678,2.19767 -1.42706,2.5687 -2.19766,0.71353 -3.68181,-1.98361 -3.65326,-3.86732 -0.0856,-3.46775 0.17125,-6.935501 0.38531,-10.403247 a 4.4381478,4.4381478 0 0 1 1.213,-3.168067 z m 6.80706,0.413852 c 2.48309,-0.627908 4.82345,0.841962 6.43603,2.625782 1.08456,0.941858 1.56976,2.368919 2.61151,3.353585 0.19979,-1.8409 -0.31395,-3.924406 0.89905,-5.522707 0.39956,-0.784883 1.42706,-0.499503 2.0835,-0.556555 a 9.5898241,9.5898241 0 0 1 1.71247,4.167005 42.925879,42.925879 0 0 1 0.52803,9.076082 5.8652049,5.8652049 0 0 1 -1.17018,3.82452 2.4402676,2.4402676 0 0 1 -2.21195,0.44238 10.916987,10.916987 0 0 1 -3.88158,-2.95401 c -0.94187,-0.89904 -1.27009,-2.254752 -2.2833,-3.096715 -0.18554,1.798095 0.17125,3.753155 -0.72779,5.422815 a 1.9550683,1.9550683 0 0 1 -2.45454,0.57083 4.4238772,4.4238772 0 0 1 -2.05496,-3.8816 c 0,-3.296502 0,-6.578735 0,-9.875235 a 8.7764016,8.7764016 0 0 1 0.57081,-3.610455 z m -22.36199,3.196609 a 6.6786275,6.6786275 0 0 1 9.66118,-2.097777 2.8541143,2.8541143 0 0 1 0.6279,3.795974 c -1.22726,1.427055 -3.35358,0.770611 -4.95189,1.341433 -2.19766,0.827691 -2.1834,4.637936 0.21408,5.194486 l 0.68498,-0.399559 c -0.48521,-0.456676 -1.17018,-0.884777 -0.94186,-1.655387 0,-1.427057 1.5983,-2.012149 2.85411,-1.883717 a 3.8815954,3.8815954 0 0 1 3.95295,2.154858 c 0.51374,2.582975 0,5.708232 -2.42598,7.235182 a 7.1352854,7.1352854 0 0 1 -9.13318,-2.16913 11.102504,11.102504 0 0 1 -0.45668,-11.530618 z m 40.1003,-0.313962 a 4.7235592,4.7235592 0 0 1 3.02535,-2.568702 7.5063204,7.5063204 0 0 1 6.57874,1.084566 c 2.59724,1.912254 3.52483,5.208759 3.99576,8.248388 0.0856,1.812363 0.14272,3.624723 0,5.437093 A 3.0253611,3.0253611 0 0 1 179.1676,104.98 c -0.94185,0.14272 -2.14059,0.3282 -2.85411,-0.51374 -1.39851,-1.31289 -1.39851,-3.48202 -1.74101,-5.251572 a 11.416457,11.416457 0 0 0 -2.19767,0.399559 c -0.34248,1.170193 -0.61363,2.354643 -0.99893,3.524833 a 2.2119385,2.2119385 0 0 1 -3.41068,0.85623 5.922287,5.922287 0 0 1 -1.99787,-3.56764 16.99625,16.99625 0 0 1 1.32716,-10.246272 z m 4.66648,3.25369 c 0,0.627908 -0.21408,1.427062 0.49944,1.812364 a 2.0406916,2.0406916 0 0 0 1.84091,-0.642172 c -0.0856,-0.542284 0.11412,-1.241543 -0.35679,-1.641118 -0.39956,-0.71353 -2.01215,-0.556555 -1.92652,0.456676 z m 11.33082,-4.809182 c 0.67073,-1.427056 2.65433,-1.170186 3.89587,-0.670716 a 3.1537963,3.1537963 0 0 1 2.05496,3.239418 c 0.17125,1.769554 -0.57081,3.45348 -0.39955,5.208763 l 0.27114,0.114187 c 1.92652,0.75634 4.15272,0.171248 5.95082,1.341438 a 2.697138,2.697138 0 0 1 0.34249,4.152737 14.869935,14.869935 0 0 1 -10.67439,1.42705 3.3107725,3.3107725 0 0 1 -1.91225,-2.64005 33.835525,33.835525 0 0 1 0,-8.1485 13.813913,13.813913 0 0 1 0.52803,-3.981487 z"
         style="fill-rule:evenodd;stroke-width:1.42705" />
      <path
         id="path4"
         class="cls-2"
         d="m 156.36483,117.4097 a 22.319436,22.319436 0 0 1 5.63695,0.81344 c 0.74207,0.21407 1.82665,0.11419 2.12633,0.99895 q 7.13535,19.82205 14.59895,39.51568 c 4.28123,11.41659 8.56245,22.83317 12.84368,34.17841 2.66862,6.99268 5.35151,13.9996 7.90597,21.03508 0.67073,1.88373 1.42709,3.73893 1.92657,5.7083 -4.99477,0.19977 -9.98953,0 -15.0271,0 -6.23632,0.31396 -12.50117,0.0856 -18.75175,0.2283 -1.58405,0.11425 -3.18238,0.21407 -4.76642,0.18555 -2.41175,0 -4.80923,0.14271 -7.20672,-0.0999 0,-2.85415 0.0714,-5.7083 -0.0856,-8.56245 -0.14271,-2.22624 0.12843,-4.45247 0,-6.67871 a 4.7806977,4.7806977 0 0 0 -1.12735,-2.3404 c -0.9276,-1.2701 -1.42707,-2.85415 -2.31186,-4.10998 a 7.135369,7.135369 0 0 0 -0.52804,3.91018 78.489064,78.489064 0 0 0 0.22832,8.56245 c 0.17125,2.54019 0,5.09466 0.0856,7.64911 0,0.61364 0.0999,1.82665 -0.84197,1.72676 -3.58195,0.14272 -7.13538,-0.17125 -10.76014,0.29968 -8.99058,0.15695 -18.00968,-0.0714 -27.01452,0.2283 -4.0957,-0.11413 -8.1914,0.25685 -12.2871,0 a 11.559299,11.559299 0 0 1 -3.510603,-0.11413 6.2648547,6.2648547 0 0 1 0.941869,-5.55131 c 2.026444,-2.72572 3.581954,-5.70831 5.380064,-8.56245 6.62163,-11.05982 13.42877,-22.01975 20.06466,-33.0653 q 9.43297,-15.69781 18.69467,-31.53834 c 4.5381,-7.4636 8.41975,-15.28396 12.71523,-22.83318 a 7.135369,7.135369 0 0 1 1.07032,-1.52697 z m -8.56244,19.66508 v 0.82771 h 1.42707 c 0,-0.19978 0,-0.59937 0,-0.79917 z m 3.39644,27.22858 c -0.0999,2.3404 -0.64219,4.72361 0,7.03547 a 7.9345309,7.9345309 0 0 0 2.85415,3.95299 12.843665,12.843665 0 0 0 4.69507,2.85415 c 0,-1.58405 -0.24261,-3.13955 -0.3282,-4.70934 a 11.759089,11.759089 0 0 0 4.05289,0.41385 13.685639,13.685639 0 0 0 -11.18825,-9.53286 z m -9.16183,13.15762 a 12.501168,12.501168 0 0 0 -3.88164,4.65226 15.940415,15.940415 0 0 0 4.72362,0.42809 9.5471246,9.5471246 0 0 0 -1.78384,5.63694 12.130128,12.130128 0 0 0 9.14755,-5.06611 c 1.42707,-1.8552 1.42707,-4.28123 1.52696,-6.59308 0.12843,-0.85625 -0.95614,-0.6422 -1.42707,-0.77062 -2.85414,0 -5.9509,-0.15697 -8.24849,1.71248 z m 35.93371,2.31185 1.28437,1.1702 1.28437,-1.08457 z m -24.58847,0.0856 a 11.330967,11.330967 0 0 0 2.85416,9.43296 12.843665,12.843665 0 0 0 8.80503,2.85415 9.1047311,9.1047311 0 0 0 -3.05393,-4.89486 c 2.04073,-0.17125 4.28121,0.45667 6.16495,-0.55657 a 28.541478,28.541478 0 0 0 -3.43925,-3.6248 18.180921,18.180921 0 0 0 -11.3595,-3.21091 z m -5.90808,8.86212 a 10.831491,10.831491 0 0 0 -7.77756,4.28123 9.5899368,9.5899368 0 0 0 -1.88374,6.45037 21.862771,21.862771 0 0 0 5.97944,-2.21196 37.289441,37.289441 0 0 0 0.31396,4.70935 19.565184,19.565184 0 0 0 5.38008,-3.01113 c 2.36894,-2.25478 2.85415,-5.7083 3.68185,-8.70515 a 1.6554058,1.6554058 0 0 0 -1.04176,-1.99791 28.541478,28.541478 0 0 0 -4.65227,0.5423 z m 7.30663,3.01114 a 15.697813,15.697813 0 0 0 -0.45669,5.08037 10.24639,10.24639 0 0 0 3.2252,6.3933 13.828346,13.828346 0 0 0 7.97733,3.1681 15.027088,15.027088 0 0 0 -2.29758,-5.62266 17.838424,17.838424 0 0 0 6.09359,0.19978 21.035069,21.035069 0 0 0 -2.85415,-3.52488 12.843665,12.843665 0 0 0 -3.83881,-3.16811 33.279364,33.279364 0 0 0 -7.89173,-2.52591 z m -19.40821,12.13012 a 5.0233002,5.0233002 0 0 1 0.49943,0.79917 c 0.59938,-0.25685 1.22729,-0.48522 1.84093,-0.71354 v -0.74208 a 5.6226714,5.6226714 0 0 0 -2.39749,0.65645 z M 51.432077,119.92136 a 62.577189,62.577189 0 0 1 17.92405,-1.42708 94.400939,94.400939 0 0 1 10.731595,1.91228 12.686686,12.686686 0 0 1 3.810289,1.55551 c 2.854148,1.59832 6.236315,1.96936 9.033377,3.68185 2.797068,1.71249 5.808192,3.7104 8.562442,5.7083 a 10.117954,10.117954 0 0 1 2.85415,4.18132 c 1.42707,2.85415 2.62581,5.83674 3.99581,8.71943 a 14.527613,14.527613 0 0 1 1.42707,5.18027 l -1.42707,-0.19977 0.39955,0.59937 a 5.7082953,5.7082953 0 0 1 1.29864,0.11413 87.165676,87.165676 0 0 1 2.61155,19.8506 35.51987,35.51987 0 0 1 0.19978,5.3658 c -0.37103,2.35467 0,4.7807 -0.64219,7.13536 -1.42707,5.5656 -4.82351,10.28921 -7.62058,15.22689 -0.92759,1.58405 -2.61154,2.46884 -3.8959,3.73894 a 85.35329,85.35329 0 0 1 -18.309362,12.21573 28.869705,28.869705 0 0 1 -7.335164,1.9551 12.15867,12.15867 0 0 1 -3.639036,0.61364 c -3.810289,-0.44237 -7.677662,-0.44237 -11.416594,-0.98467 a 51.645804,51.645804 0 0 1 -25.88712,-14.81303 38.074331,38.074331 0 0 1 -7.90599,-11.53076 56.141084,56.141084 0 0 1 -4.737886,-22.71901 69.926619,69.926619 0 0 1 4.28122,-21.2634 47.678539,47.678539 0 0 1 3.96727,-8.7337 c 1.427076,-2.39749 3.0254,-4.638 4.495286,-6.96413 a 8.9905658,8.9905658 0 0 1 3.539141,-3.15384 59.937107,59.937107 0 0 1 13.814083,-5.92235 z m 20.207366,17.9954 a 4.0671606,4.0671606 0 0 0 0.171248,2.18342 h 0.442382 c 0.684994,-0.74207 0,-1.66967 -0.613646,-2.15487 z m 11.602118,0.0714 a 7.3208895,7.3208895 0 0 0 1.041758,2.21196 l 1.141658,-0.57083 c 0.09989,-0.35678 0.18554,-0.71353 0.28543,-1.0703 a 3.5391433,3.5391433 0 0 1 -2.468846,-0.57083 z m 5.123193,2.51165 -0.42809,1.27009 c 0.75635,0.19979 1.512695,0.39956 2.269045,0.57084 a 6.2933959,6.2933959 0 0 0 -1.840922,-1.84093 z m -52.259449,9.119 h 1.127387 c -0.142715,-0.64217 -0.299669,-1.28437 -0.456677,-1.91227 a 2.3689426,2.3689426 0 0 0 -0.670721,1.91227 z m 66.430295,-0.3282 a 6.4075623,6.4075623 0 0 0 4.28122,1.31291 v -0.98468 a 32.123434,32.123434 0 0 0 -4.28122,-0.3282 z m -2.04072,6.43611 c -0.47092,0.7278 -0.941869,1.42707 -1.427073,2.18342 h 1.155933 a 5.9651688,5.9651688 0 0 0 0.91333,-1.66971 l -0.64219,-0.52802 z m 3.06821,0.47092 c 0,0.19977 0,0.57082 0,0.77061 h 0.75635 c 0,-0.18554 0,-0.57083 0,-0.75635 z m -9.989518,3.39643 a 8.2199458,8.2199458 0 0 0 1.427071,-0.51373 12.843665,12.843665 0 0 0 0.456677,-1.42709 2.51165,2.51165 0 0 0 -1.855194,1.99791 z m -1.526966,-1.34146 c 0,0.69928 0,1.42709 0,2.06926 0.256896,-0.17123 0.499447,-0.37102 0.742072,-0.55655 a 4.866322,4.866322 0 0 0 -0.727801,-1.51271 z m 10.232114,1.09885 c 0,0.37103 0,0.74209 0,1.09885 h 0.79917 c 0,-0.31396 -0.0999,-0.62791 -0.14272,-0.9276 z m -0.27114,4.58091 a 4.6237195,4.6237195 0 0 1 0.85624,2.0978 5.7082953,5.7082953 0 0 0 0.89906,-2.85415 c -0.57082,0.24262 -1.15593,0.51374 -1.74102,0.75635 z m 152.53993,-43.35455 c 3.46779,0 6.9213,-0.61363 10.3891,-0.42809 0,4.28123 0,8.49109 0,12.74378 0,2.6829 0.47092,5.35152 0.2426,8.0487 a 8.3626529,8.3626529 0 0 1 -1.34145,-1.82667 l -0.62791,-0.11412 a 142.19365,142.19365 0 0 1 0.3282,15.59791 c -2.85415,0.3282 -5.77965,0.22831 -8.67661,0.49945 -3.39644,0.34249 -6.82141,0 -10.21785,0.39956 -1.84093,0.19978 -3.71039,0.0856 -5.56559,0.157 0,2.06927 0.4281,4.12424 0.3282,6.1935 a 4.9947587,4.9947587 0 0 1 -0.94186,2.4403 2.3404013,2.3404013 0 0 1 0.94186,1.98364 c -0.61364,4.85205 -0.0999,9.77545 -0.39955,14.64178 -0.22831,1.81237 0.2426,3.61048 0,5.4086 a 96.798422,96.798422 0 0 0 -0.28544,10.17505 117.47673,117.47673 0 0 0 0.28544,12.07305 c 0.34249,4.01006 -0.35674,8.00587 -0.38532,12.01595 -8.89067,0 -17.79562,-0.0856 -26.70055,0 a 65.645399,65.645399 0 0 1 -0.15695,-6.90704 c 0,-3.1681 0,-6.36475 0,-9.53285 0.3282,-4.01008 0.0714,-8.02015 0.27113,-12.03024 0.39955,-2.85414 0.17125,-5.7083 0.4852,-8.64806 0.3425,-7.42079 0.4281,-14.85584 0.18555,-22.27663 -0.14272,-2.69717 -0.38532,-5.38006 -0.41385,-8.09151 -10.23212,0 -20.46423,-0.38531 -30.69636,-0.55655 -0.49945,-6.52174 -0.3282,-13.08627 -0.47091,-19.62227 a 84.111732,84.111732 0 0 1 -0.24261,-10.56034 c 2.38322,-0.15701 4.78071,0 7.13537,-0.27114 2.35468,-0.27114 4.3954,0 6.59309,-0.18554 3.49632,-0.37102 7.0212,-0.3282 10.5318,-0.59937 3.18237,0.0999 6.33621,-0.44239 9.51859,-0.3425 3.18237,0.0999 6.15068,0 9.23316,0 1.69822,0 3.3679,-0.3282 5.08039,-0.31396 8.47682,0 16.9679,0 25.44472,0 z m -22.83318,1.91229 c 0,0.42808 0.0714,0.85623 0.12842,1.29863 l 0.69926,0.0999 c 0.12843,-0.47091 0.24262,-0.94186 0.37103,-1.42708 z m 1.56977,0 c 0.24261,0.35678 0.47093,0.72781 0.69928,1.08457 h 0.77061 c 0,-0.35674 0,-0.72781 0,-1.08457 h -1.42706 z m -22.83317,19.07997 a 10.517534,10.517534 0 0 0 0.71353,-0.87051 14.627508,14.627508 0 0 0 -0.88478,-1.21301 1.6982179,1.6982179 0 0 0 0.11412,2.05498 z"
         style="fill:#a1c9d6;fill-rule:evenodd;stroke-width:1.42708" />
      <path
         class="cls-1"
         d="m 143.6767,231.87397 c -0.15695,0.54227 0,0.72781 0.51375,0.54227 0.15695,-0.52803 -0.014,-0.71352 -0.51375,-0.54227 z"
         id="path10"
         style="fill-rule:evenodd;stroke-width:1.42705" />
      <path
         class="cls-1"
         d="m 189.99896,233.02987 c -0.41385,0.2713 0,1.08455 0.44239,0.71352 0.44239,-0.37108 -0.014,-1.05601 -0.44239,-0.71352 z"
         id="path12"
         style="fill-rule:evenodd;stroke-width:1.42705" />
      <path
         class="cls-1"
         d="m 127.13711,234.22859 a 19.9788,19.9788 0 0 0 -0.94186,1.81237 c 0.62791,-0.41369 1.24154,-0.84194 1.85518,-1.28433 -0.22832,-0.21412 -0.51374,-0.59939 -0.91332,-0.52804 z"
         id="path14"
         style="fill-rule:evenodd;stroke-width:1.42705" />
      <path
         class="cls-1"
         d="m 129.43468,242.17731 c -0.42809,0.29988 0.0714,0.99895 0.4852,0.68498 0.41386,-0.3139 -0.0714,-1.01318 -0.4852,-0.68498 z"
         id="path16"
         style="fill-rule:evenodd;stroke-width:1.42705" />
      <path
         class="cls-1"
         d="m 182.82088,250.99656 c -0.35679,0.44227 0.37102,1.05601 0.71352,0.5565 0.34249,-0.49944 -0.39956,-1.07025 -0.71352,-0.5565 z"
         id="path18"
         style="fill-rule:evenodd;stroke-width:1.42705" />
      <path
         class="cls-1"
         d="m 124.19737,311.58941 c -0.15695,0.44227 0,0.59934 0.44238,0.44227 0.14272,-0.44227 -0.014,-0.59938 -0.44238,-0.44227 z"
         id="path20"
         style="fill-rule:evenodd;stroke-width:1.42705" />
      <path
         class="cls-1"
         d="m 234.02369,286.58737 c 0.3282,0.68499 0.52802,1.51264 1.2558,1.88371 0.11425,-0.91335 -0.58509,-1.4271 -1.2558,-1.88371 z"
         id="path22"
         style="fill-rule:evenodd;stroke-width:1.42705" />
      <path
         class="cls-2"
         d="m 143.6767,231.87397 c 0.49945,-0.17151 0.67073,0 0.51375,0.54227 -0.49945,0.18554 -0.67072,0 -0.51375,-0.54227 z"
         id="path24"
         style="fill:#a1c9d6;fill-rule:evenodd;stroke-width:1.42705" />
      <path
         class="cls-2"
         d="m 189.99896,233.02987 c 0.4281,-0.34249 0.79917,0.42825 0.44239,0.71352 -0.35679,0.28532 -0.85624,-0.44227 -0.44239,-0.71352 z"
         id="path26"
         style="fill:#a1c9d6;fill-rule:evenodd;stroke-width:1.42705" />
      <path
         class="cls-1"
         d="m 240.28846,288.54243 c 0,-2.59729 0.54228,-5.16599 0.52803,-7.77746 a 5.99364,5.99364 0 0 0 -2.48308,-0.79916 l 1.42707,-1.32715 v 0 c 0,0.49943 0,0.98465 0,1.42703 h 1.42705 c 0.24261,-2.85413 0.48521,-5.70821 0.89905,-8.56235 v 0 c 0.31396,-3.81025 -0.51374,-7.56338 -0.78488,-11.34511 -0.28544,-1.32715 0.15695,-2.85407 -0.77061,-3.95291 0.78487,-2.12633 -0.2569,-4.40965 -0.2569,-6.57874 a 27.784803,27.784803 0 0 0 -0.29968,-5.33725 34.905818,34.905818 0 0 0 -0.31395,-4.56654 c -0.27113,-4.79491 -0.21407,-9.60411 -0.77061,-14.37048 a 55.141488,55.141488 0 0 1 -6.15062,-0.31397 c -4.35253,0 -8.69078,-0.39956 -13.0433,-0.42808 -3.12527,-0.37103 -6.26478,-0.19979 -9.4043,-0.3425 -0.4281,4.5095 0,9.07607 -0.57083,13.58561 v 0 c 0,2.6543 0,5.30865 -0.0714,7.97724 -0.44239,3.76743 -0.2569,7.57763 -0.39957,11.41642 -0.19977,6.92124 -0.51373,13.82823 -0.57081,20.7494 a 114.54988,114.54988 0 0 0 -0.3282,11.50213 18.551743,18.551743 0 0 0 4.36679,0.3425 c 2.65432,0 5.28011,0.42825 7.94871,0.3851 2.12631,0 4.28116,0.3851 6.3504,0.3851 4.28116,0 8.56234,0.67075 12.95768,0.52803 h 0.27113 c 0,-0.88476 0.11425,-1.75528 0.17125,-2.62582 z m 0.9704,-19.5079 c 0.37103,-0.0858 0.4852,0.41369 0.34249,0.69929 a 0.41384659,0.41384659 0 0 1 -0.15695,0.15695 c -0.39956,0.0857 -0.49945,-0.51348 -0.28542,-0.77059 a 0.27114084,0.27114084 0 0 1 0.0999,-0.0857 z m -28.04167,-19.1654 a 1.298622,1.298622 0 0 1 0,0.32793 2.4545383,2.4545383 0 0 1 -0.0999,0.29988 1.4270571,1.4270571 0 0 1 -1.02748,0.78493 v 0 c 0.0856,-0.47086 0.18555,-0.92759 0.29967,-1.42709 h 0.8705 z m 1.19872,-3.325 a 0.62790517,0.62790517 0 0 1 0.0999,-0.2713 c 0.27114,0 0.37104,0.0857 0.38532,0.15696 0.014,0.0712 -0.52803,0.44228 -0.48521,0.11438 z m 0,-5.08034 v 0 c 0,-0.24271 0,-0.49945 0,-0.75635 v 0 a 1.9836094,1.9836094 0 0 0 -0.45667,-1.52692 v 0 c 0.45667,0.41369 0.99894,0.74205 1.42706,1.21296 -0.27114,0.44228 -0.61364,0.71353 -0.94186,1.07031 z m 4.43815,6.59298 h -0.65645 -0.18553 c 0,-0.14294 0.14271,-0.41369 0.19977,-0.55651 l 0.59936,-0.21413 c 0,0.21413 0,0.62786 0,0.8277 z m 2.16913,9.98944 c -0.49945,0.28532 -0.98466,0.5708 -1.49841,0.81341 q -0.0856,-0.68499 -0.12842,-1.42705 v 0 c 0.52803,0.19956 1.07029,0.39967 1.62684,0.55657 z m 9.73254,-22.83295 -0.84197,-1.51264 0.97039,0.28532 c -0.0286,0.3139 -0.0714,0.72775 -0.0999,1.1416 z m 2.66858,27.02846 c 0,0.24271 0,0.68499 0,0.91336 -0.31395,-0.2713 -0.59936,-0.54227 -0.88477,-0.8277 v 0 z"
         id="path28"
         style="fill-rule:evenodd;stroke-width:1.42705" />
      <path
         class="cls-2"
         d="m 234.02369,286.58737 c 0.67071,0.45684 1.42705,0.97036 1.2558,1.88371 -0.7278,-0.37107 -0.92759,-1.19872 -1.2558,-1.88371 z"
         id="path30"
         style="fill:#a1c9d6;fill-rule:evenodd;stroke-width:1.42705" />
      <path
         class="cls-2"
         d="m 124.19737,311.58941 c 0.42809,-0.15695 0.58509,0 0.44238,0.44227 -0.45667,0.15695 -0.59936,0 -0.44238,-0.44227 z"
         id="path32"
         style="fill:#a1c9d6;fill-rule:evenodd;stroke-width:1.42705" />
      <path
         class="cls-1"
         d="m 188.87159,250.46852 c 3.06817,-6.13636 6.29332,-12.20135 9.17599,-18.4233 -9.17599,-0.11438 -18.35197,0 -27.52794,0 -1.31289,2.54016 -2.62579,5.09457 -3.72461,7.74892 -2.66859,6.25049 -5.56552,12.38684 -8.14849,18.66592 h -0.52804 a 7.649026,7.649026 0 0 0 -1.51267,-3.38212 c -0.98468,-1.6554 -1.51269,-3.51058 -2.49735,-5.16598 a 14.399006,14.399006 0 0 1 -1.14165,-1.91225 c -0.65644,-1.71248 -1.76955,-3.19663 -2.5687,-4.82345 -2.85412,-6.15065 -6.07928,-12.08719 -8.94765,-18.20925 a 28.327084,28.327084 0 0 0 -1.42704,-3.12527 c -2.29756,-0.19977 -4.6094,0 -6.90696,0 a 72.465959,72.465959 0 0 0 -8.26266,0.3425 l -5.59406,0.0999 c -0.28543,2.24047 -0.9704,4.76637 0.3282,6.82134 q 4.167,9.20452 8.27693,18.45185 l 0.98467,-0.42825 1.04175,0.92758 c -0.64217,0 -1.27008,-0.0857 -1.89799,-0.15695 2.73996,6.23625 5.40856,12.48678 8.09142,18.73727 2.11205,4.98045 4.28116,9.98938 6.25051,14.99836 1.05603,3.42494 0.71353,7.13531 1.24154,10.60307 0.28542,5.02323 0.61364,9.98938 0.78489,15.06973 0.47091,2.85408 0,5.7082 0.49943,8.56234 0.12843,3.02532 0.15697,6.0507 0.15697,9.09032 9.48992,0 18.97986,0 28.46977,0 0.14271,-1.88371 -0.25684,-3.72461 -0.15695,-5.59402 0,-4.28118 -0.14271,-8.47675 -0.17125,-12.7151 -0.28542,-2.22621 -0.0714,-4.46671 -0.19977,-6.69292 q 0,-6.67863 -0.14272,-13.35726 a 25.087664,25.087664 0 0 1 -0.18553,-4.73779 c 5.43707,-10.48888 10.84562,-20.93495 16.2399,-31.3953 z m -6.05071,0.52804 c 0.31396,-0.51402 1.04175,0.11437 0.71352,0.55656 -0.3282,0.44227 -1.07029,-0.11438 -0.71352,-0.55656 z m -56.62563,-14.9556 a 19.9788,19.9788 0 0 1 0.94186,-1.81237 c 0.39956,-0.0713 0.6279,0.31392 0.91332,0.52804 -0.61364,0.44228 -1.22727,0.87053 -1.85518,1.28438 z m 3.72463,6.82133 c -0.41387,0.31392 -0.91333,-0.3851 -0.48522,-0.68498 0.42809,-0.29988 0.91332,0.38511 0.48522,0.68498 z m 11.98727,14.08508 v 0 c 0,0.37107 -0.0856,0.74205 -0.14271,1.11312 v 0 h -1.08456 a 3.5676428,3.5676428 0 0 1 1.22726,-1.11312 z m 0.94186,4.46671 h -1.08456 c 0,-0.22815 0,-0.71357 0,-0.95612 v 0 l 1.02748,0.19956 c 0,0.18554 0,0.5851 0.0714,0.78487 z m 9.09035,-9.01902 v 0 h 0.54229 0.19978 v 1.04172 0 h -1.05602 c 0.0714,-0.39967 0.18554,-0.72776 0.31395,-1.04172 z m -3.93867,9.44711 a 10.146376,10.146376 0 0 0 0.85624,1.59829 c -0.0714,0 -0.19978,0.2001 -0.2569,0.25673 l -0.59937,1.54122 v 0 a 3.396396,3.396396 0 0 1 -1.29862,-1.35568 v 0 l -0.32825,-0.21412 v 0 a 4.2811714,4.2811714 0 0 0 1.62685,-1.82665 z m -4.28118,-17.353 v 0 c 0,-0.29989 0.0856,-0.59939 0.14272,-0.89906 v 0 a 7.3065323,7.3065323 0 0 0 0.69926,-0.62793 1.9122565,1.9122565 0 0 0 0.6279,-1.42704 v 0 l 0.59937,0.0712 a 15.954499,15.954499 0 0 0 0.9704,1.9836 v 0 a 4.1099245,4.1099245 0 0 0 -0.8277,0 v 0 a 2.6257851,2.6257851 0 0 0 -0.67071,0.0998 h -0.22831 l -0.42815,0.18554 a 3.2536903,3.2536903 0 0 0 -0.91331,0.61364 z m 0.88478,41.88412 v 0 -0.98466 0 l 0.65645,0.0857 c 0,0.17151 0,0.51348 0,0.68499 z m 3.02536,-18.93705 a 7.1352854,7.1352854 0 0 1 -1.71247,0.28533 c -0.37103,-0.41369 -0.68499,-0.85624 -1.02748,-1.27003 v 0 a 11.958739,11.958739 0 0 0 1.86945,-0.3425 l 0.88478,0.55652 c -0.0286,0.19956 -0.0426,0.5851 -0.0426,0.77063 z m 0.98468,13.029 h -0.81343 a 1.4270571,1.4270571 0 0 0 0,-0.21412 v 0 -0.3851 0 c 0,-0.14293 0,-0.2713 0,-0.35705 v 0 h 0.28543 0.28543 0.28543 v 0 c 0,0.22815 0,0.64221 0,0.85622 z m 0.61363,-5.02321 a 0.22832913,0.22832913 0 0 1 0,0.14293 0.31395255,0.31395255 0 0 1 -0.31396,0.14292 h -0.0714 -0.12842 v 0 a 0.299682,0.299682 0 0 1 -0.11412,-0.22815 0.32822316,0.32822316 0 0 1 0.0714,-0.21412 0.28541145,0.28541145 0 0 1 0.11413,-0.11438 v 0 a 0.38530543,0.38530543 0 0 1 0.28544,0 l 0.17123,0.12836 a 0.41384659,0.41384659 0 0 1 0.0714,0.18554 0.12843514,0.12843514 0 0 1 -0.0856,-0.0431 z m 0.0714,-16.73937 c -0.0999,0 -0.18554,0 -0.19978,-0.37108 v 0 c 0.61364,-0.37109 0.38533,0.28533 0.12843,0.37108 z m 0.65645,-0.48543 h 1.02747 c 0,0.24271 0,0.72781 0,0.97043 v 0 h -0.91331 c -0.0714,-0.2713 -0.11412,-0.74212 -0.14271,-0.97043 z m 2.85411,2.85414 a 6.0079104,6.0079104 0 0 0 -2.05496,-0.72781 c 0,-0.14294 0,-0.45684 0,-0.61364 v 0 c 0.62791,0 1.27009,0 1.91226,0 0,0.45684 0.11413,0.9133 0.17125,1.42705 z m 4.15274,4.43812 0.0856,-0.0713 c 0.42814,-0.37107 0.94185,0.29989 0.59937,0.64217 h -0.0856 -0.0856 v 0 a 0.4423877,0.4423877 0 0 1 -0.59937,-0.5851 z m -2.72568,-10.30335 v 0 c 0.54228,0 0.42809,0.25674 0.22832,0.37109 -0.19979,0.11438 -0.55657,0.0998 -0.31397,-0.3851 z m 0.78488,12.51527 h 1.24155 c 0,0.37108 0,0.72781 0,1.09883 v 0 a 13.885266,13.885266 0 0 0 -1.71248,0.49945 c 0.057,-0.52803 0.24262,-1.0703 0.38533,-1.61257 z m 1.5555,29.29751 a 0.42811715,0.42811715 0 0 1 -0.68499,0 0.34249371,0.34249371 0 0 1 -0.0856,-0.12838 v 0 a 0.47092887,0.47092887 0 0 1 0.37102,-0.61362 h 0.19978 0.12842 a 0.42811715,0.42811715 0 0 1 -0.014,0.72775 z m 0,-17.63843 a 0.32822316,0.32822316 0 0 1 0.0999,-0.22815 0.48519942,0.48519942 0 0 1 0.81343,0.19957 0.32822316,0.32822316 0 0 1 0,0.15695 v 0.0858 a 0.48519942,0.48519942 0 0 1 -0.37104,0.15695 0.48519942,0.48519942 0 0 1 -0.55655,-0.3851 z m 0.4852,33.50732 v 0 c 0,-0.54228 0.51375,-0.81346 0.79916,-1.1702 0.0999,0.52804 0.17124,1.07031 0.22831,1.61259 -0.29967,-0.17153 -0.85623,-0.0997 -1.04176,-0.45684 z m 1.66966,-47.79217 v 0 c 0.79915,-0.79917 1.28435,0.8277 0.74208,1.42704 v 0 l -0.12843,0.11438 a 0.7420697,0.7420697 0 0 1 -0.41385,0.0857 2.2262091,2.2262091 0 0 1 -0.19979,-1.62688 z m 0.22831,15.8546 -0.19977,-0.24271 -0.11413,-0.12837 -0.39955,-0.47085 1.61258,-0.97043 h 0.39955 c -0.41385,0.61364 -0.7706,1.27009 -1.21299,1.86948 z m 3.33932,33.50732 q -0.22832,0.81341 -0.42814,1.62682 a 4.7378298,4.7378298 0 0 0 -1.5555,-1.21297 l -0.11413,-0.51346 v 0 a 2.2404798,2.2404798 0 0 0 2.09777,0.0998 z m 0.35678,-60.62139 v 0 c -0.28542,-0.37108 -0.54228,-0.7421 -0.79915,-1.12736 v 0 l 0.98468,0.3139 c -0.0714,0.29988 -0.12843,0.57081 -0.18555,0.84195 z m 1.42707,39.8577 v 0 h -0.5851 v 0 l -0.11413,-0.88478 v 0 l 0.54228,0.0712 h 0.11412 0.19978 c -0.11413,0.31392 -0.15695,0.65647 -0.19978,0.84194 z m 0.5708,8.80495 c -0.15695,0.18554 -0.65643,0.3139 -0.3282,-0.25674 v 0 c 0.35678,0.0431 0.38532,0.17152 0.28543,0.28532 z m 2.78276,-49.36193 c -0.62793,-0.28532 -1.24156,-0.64195 -1.86946,-0.92737 a 3.3393136,3.3393136 0 0 0 0.64217,-0.69923 v 0 c 0.51374,0.45684 1.15591,0.88477 1.22726,1.62682 z m 1.42706,-8.33403 h -0.92759 v -0.75634 0 h 1.02749 c -0.11412,0.25674 -0.12842,0.61369 -0.14272,0.78492 z m 1.54123,-7.97724 v 0 a 1.4270571,1.4270571 0 0 1 0.92758,1.27009 v 0 l -0.75635,-0.15697 z m 1.54121,44.65266 c -0.4852,-0.22815 -0.95613,-0.48542 -1.42705,-0.72781 v 0 c 0.57082,-0.28533 1.15591,-0.55658 1.741,-0.79918 l 0.32821,0.72782 c -0.2569,0.28532 -0.52804,0.55656 -0.68499,0.8277 z m -0.78488,-36.71819 0.41385,-0.61363 h 1.0703 c 0,0.35706 0,0.72776 0.0856,1.09878 -0.5851,-0.12836 -1.09884,-0.28532 -1.61259,-0.45683 z"
         id="path34"
         style="fill-rule:evenodd;stroke-width:1.42705" />
      <path
         class="cls-1"
         d="m 132.3316,309.81982 c -0.12842,-3.1538 -0.22831,-6.33614 -0.67072,-9.48994 -8.64796,0.29989 -17.29593,0.11438 -25.9439,0.17153 a 45.837075,45.837075 0 0 1 -9.061812,-0.42827 c -0.71353,-2.95401 -0.499447,-6.02216 -0.884777,-9.00472 a 84.039393,84.039393 0 0 1 0.228311,-9.86096 c 0,-1.42709 0.08565,-2.98255 0.114188,-4.4667 0,-5.63687 0.470916,-11.24524 0.556555,-16.88209 0,-1.29861 0.271136,-2.5687 0.342493,-3.86733 0,-0.59938 0,-1.18442 0,-1.78382 a 113.08001,113.08001 0 0 0 -0.242603,-24.65956 25.216099,25.216099 0 0 0 -0.813425,-4.59513 1.7838214,1.7838214 0 0 0 -1.427057,0.31396 3.3678549,3.3678549 0 0 0 -1.52695,-0.34248 c -2.140585,0 -4.281171,0 -6.407491,0 a 32.822314,32.822314 0 0 1 -6.892683,-0.3425 c -4.281172,-0.25684 -8.647966,0 -12.971952,-0.12842 v 0 c -0.998939,2.24048 -0.75634,4.73783 -1.212994,7.13529 -0.114187,2.0264 0,4.05283 -0.28543,6.06501 0,8.56235 0.156954,17.12464 -0.570821,25.68698 -0.242604,1.68394 0,3.4107 -0.371025,5.08034 a 35.176959,35.176959 0 0 0 0,5.70821 c 0.156954,1.49845 -0.556555,2.9255 -0.456676,4.42389 -0.214073,2.22621 -0.19978,4.46671 -0.313963,6.69292 a 49.333365,49.333365 0 0 0 -0.313961,5.8081 37.388896,37.388896 0 0 0 -0.271136,6.32189 27.556474,27.556474 0 0 0 1.755277,-5.16599 c 0.399558,-1.69817 0.684988,-3.42494 1.056024,-5.1374 a 19.9788,19.9788 0 0 1 0.171247,3.58194 c 0,5.52272 -0.142715,11.03116 -0.18554,16.53959 0.09989,2.01214 -0.28543,4.02427 -0.228311,6.03646 0,2.73995 0,5.46561 0,8.19133 22.376253,0 44.738242,0.0857 67.071682,-0.0858 a 108.22801,108.22801 0 0 0 -0.24261,-11.51632 z M 72.809041,245.60224 v 0 c 0.08565,0.55658 0.18554,1.12738 0.299668,1.68394 v 0 l -0.542283,-0.64216 c -0.18554,-0.21413 -0.356787,-0.42825 -0.528034,-0.65645 z m -3.168068,38.83028 v 0 a 4.4381478,4.4381478 0 0 1 1.840908,0.25672 l -0.599365,0.18555 -1.070295,0.29988 h -0.199779 v 0 c 0.01402,-0.0997 0.02859,-0.54228 0.02859,-0.72781 z m -2.383184,-6.22201 1.255814,0.81341 -1.241542,0.17151 v 0 -0.49945 a 3.2251491,3.2251491 0 0 0 0,-0.3851 v -0.0997 z m 0.228312,-5.29437 0.342493,-0.0713 c 0,0.22815 0,0.65645 -0.09989,0.88477 v 0 h -0.613635 c 0,-0.17152 0,-0.51402 0,-0.68499 z m -0.613637,21.77689 c 0,0 0,-0.17151 0,-0.41369 a 0.65644628,0.65644628 0 0 1 0.356788,0.0998 c 0.199779,0.17153 -0.214073,0.42827 -0.356788,0.32848 z m 1.355704,-2.64006 v 0 c 0.742068,0 0.228311,0.47086 0,0.42825 -0.228311,-0.0431 -0.156954,-0.11438 0,-0.41369 z m 0.799154,23.53218 c -0.42809,-0.2713 -0.542284,-0.8277 -0.799154,-1.24155 a 2.6543263,2.6543263 0 0 1 2.183395,1.24155 8.9619188,8.9619188 0 0 1 -1.384241,0.0161 z m 3.681807,2.61153 h -1.427061 c 0,-0.24271 0,-0.69928 -0.08565,-0.94188 v 0 a 10.831364,10.831364 0 0 1 1.512684,0.89906 z m 0.742068,-5.32295 h -0.856234 a 4.4381478,4.4381478 0 0 1 1.184456,-1.42703 c -0.114187,0.41368 -0.18554,0.92758 -0.3282,1.44132 z m 8.705047,-57.28205 h -0.08565 a 0.32822316,0.32822316 0 0 1 -0.156955,0 v 0 c -0.385318,0 -0.71353,-0.54232 -0.313961,-0.81346 h 0.08565 c 0.371025,-0.14239 0.899043,0.49945 0.470916,0.81346 z m 0,-7.1353 c -0.413851,0.19956 -0.827691,0.3851 -1.227266,0.59934 -0.385319,0.51401 -0.08565,1.09884 0.0856,1.62687 v 0 c -0.599367,-0.61363 -1.255817,-1.15596 -1.869452,-1.741 a 0.68498743,0.68498743 0 0 1 0.128421,-0.22815 c 0.299669,-0.37108 0.784882,0.12837 1.01321,0.514 a 3.1395258,3.1395258 0 0 1 1.869444,-0.77063 z m -6.279047,33.76416 c -0.399559,-0.21412 -0.399559,-0.45683 0,-0.68498 v 0 q 0.599364,0.31391 0,0.68498 z m 0.827691,30.36777 c -0.299669,0.44227 -0.998939,-0.11438 -0.670716,-0.51401 0.3282,-0.39968 0.998937,0.11437 0.670716,0.54232 z m 0.3282,-86.52248 h -0.827691 v 0 c 0,0 0,-0.12842 0,-0.19977 v -0.37103 -0.19977 0 l 0.727796,-0.0714 c 0,0.19978 0,0.61364 0,0.81343 z m 1.427055,5.70825 a 2.4830794,2.4830794 0 0 0 -0.585092,0.22815 v 0 c 0,-0.39956 0,-0.7849 0,-1.18447 v 0 h 1.184457 a 13.00049,13.00049 0 0 0 1.198728,1.14165 v 0 a 2.3546443,2.3546443 0 0 0 -1.170185,-0.3425 h -0.313962 z m 0.313963,41.67005 1.212998,0.0997 a 8.5623429,8.5623429 0 0 0 0.385319,2.32615 v 0 a 6.5644628,6.5644628 0 0 1 -1.58403,-2.42604 z m 2.169122,34.46344 -1.098832,0.11438 -0.542279,-0.99895 v 0 a 6.0935339,6.0935339 0 0 1 1.641111,0.88476 z m 1.61258,-50.26093 c -1.141647,0.44228 -1.897987,-0.57086 -2.611517,-1.28437 v 0 a 12.329774,12.329774 0 0 1 2.611517,1.28437 z m 1.056019,9.98939 h -0.684988 c -0.07136,-0.45684 -0.156953,-0.9276 -0.19978,-1.42704 v 0 l 0.856235,0.48543 c 0,0.28531 0,0.57085 0,0.87052 z m 0.428144,-16.53959 v 0 c -0.399559,0.0998 -0.528034,-0.48542 -0.313962,-0.74211 a 0.34249371,0.34249371 0 0 1 0.114188,-0.0857 c 0.456676,-0.12837 0.542277,0.64221 0.199779,0.81346 z m 4.709288,7.5491 v 0 c 1.22727,-0.22815 1.612574,0.99895 2.069234,1.85518 v 0 a 23.132596,23.132596 0 0 1 -2.069234,-1.86941 z m 2.454542,7.7204 c -0.899049,0.49945 -1.42706,-0.81341 -1.17019,-1.42703 0.870505,-0.52804 1.484141,0.69922 1.17019,1.41273 z m 1.840901,-4.52377 v 0 c -0.51374,0.17151 -0.699259,0 -0.528034,-0.51401 v 0 c 0.513742,-0.18554 0.684988,-0.0161 0.528034,0.49945 z m 0,-9.60413 v 0 l 0.114188,-0.0711 h 0.128421 v 0 0 a 13.72829,13.72829 0 0 1 1.555494,-0.88476 c 0.3282,0.35651 0.642178,0.75633 0.984672,1.12736 v 0 a 5.1374057,5.1374057 0 0 0 -2.811307,-0.15695 z m 3.596184,49.23351 H 96.18421 c 0,-0.75634 0.856235,-0.59934 1.427061,-0.67069 v 0 c -0.08565,0.59934 -0.528034,0.6564 -0.998944,0.6564 z m 14.270574,17.96663 -0.35679,0.2001 -0.35679,0.21413 v 0 l -1.09883,-0.3851 c 0,-0.14294 0,-0.39968 0,-0.52804 v 0 a 2.6400556,2.6400556 0 0 0 1.61258,-1.58405 v 0 a 2.7114085,2.7114085 0 0 0 1.14164,1.4271 l 0.7278,-0.97042 v 0 c 0.22831,0.29988 0.47091,0.5851 0.7278,0.87052 a 6.6358158,6.6358158 0 0 0 -2.44027,0.74206 z m 6.92122,-12.52956 v 0 a 2.597244,2.597244 0 0 1 -0.61363,-1.07025 v 0 h 1.29862 v 0 a 1.9407978,1.9407978 0 0 1 -0.68499,1.05601 z"
         id="path36"
         style="fill-rule:evenodd;stroke-width:1.42705" />
      <path
         class="cls-1"
         d="m 235.66479,301.02917 c -1.08455,-1.91225 -1.88371,-4.13846 -3.73889,-5.45138 -1.42705,-1.11307 -3.26796,-1.28432 -4.8948,-1.91225 -1.9408,-0.68497 -3.99576,-1.76952 -6.07926,-0.99893 v 0 c -2.36891,0.99893 -4.98044,1.58403 -6.96404,3.29651 -1.98361,1.71246 -3.8816,2.85412 -5.5798,4.5523 -0.39955,1.5127 -0.6279,3.05391 -1.08456,4.55231 -0.69925,1.94078 -0.18554,4.01004 -0.31395,6.00794 0,0.95613 -0.27114,2.09773 0.51374,2.85408 a 54.984513,54.984513 0 0 0 5.87947,6.46461 19.379436,19.379436 0 0 0 5.55125,2.85407 31.052764,31.052764 0 0 0 5.06605,-0.95612 54.770452,54.770452 0 0 0 9.40431,-2.96826 c 0.55655,-0.2713 1.31289,-0.51402 1.42705,-1.22727 0.52804,-2.12631 1.05603,-4.28116 1.61258,-6.37895 0.15696,-2.6686 0.11412,-5.33718 0.12842,-8.00577 a 5.2658409,5.2658409 0 0 0 -0.92758,-2.68289 z m -22.83291,17.33875 c -0.27113,0.39968 -0.81342,0.0858 -0.81342,-0.28531 a 0.38530543,0.38530543 0 0 1 0,-0.18555 c 0.27114,-0.42825 0.88478,0 0.79915,0.35652 a 0.69925799,0.69925799 0 0 1 -0.0286,0.11438 z m 3.12526,-0.0858 -0.49945,-0.62787 c 0.11425,-0.2713 0.22831,-0.52804 0.35679,-0.78493 v 0 c 0.49945,0.45684 0.98467,0.92759 1.51268,1.42709 z m 6.84987,-7.57769 c -0.51373,0.17152 -0.68498,0 -0.52803,-0.52803 a 0.58509345,0.58509345 0 0 1 0.42815,0 h 0.0856 v 0.0857 a 0.27114084,0.27114084 0 0 1 0,0.11437 1.0560223,1.0560223 0 0 1 -0.0286,0.3851 z m 5.70823,-3.2537 c -1.14165,-0.12836 -2.55443,0.17153 -3.18234,-1.05601 v 0 a 2.9397376,2.9397376 0 0 1 1.3129,0.28533 l 0.39955,0.17151 a 8.7478602,8.7478602 0 0 0 1.12738,0.49945 l 0.28543,0.0858 z"
         id="path38"
         style="fill-rule:evenodd;stroke-width:1.42705" />
      <path
         class="cls-3"
         d="m 271.2556,168.25574 c 0.6279,6.9355 -0.34249,13.68549 -0.61364,20.69234 h -26.74305 c -0.15695,-6.65009 -1.18445,-13.18601 -0.59936,-19.77901 0.67071,-0.8277 1.59831,-0.51374 2.41173,-0.51374 5.97937,0 11.97301,-0.15696 17.96665,0 2.44027,-0.014 4.79491,-1.1702 7.57767,-0.39956 z"
         id="path40"
         style="fill:#93cad6;stroke-width:1.42705" />
      <path
         class="cls-4"
         d="m 262.87878,178.91587 c -0.44238,1.14165 -1.04175,1.42705 -1.86945,1.12737 0.22831,-0.77061 0.85623,-0.94186 1.86945,-1.12737 z"
         id="path42"
         style="fill:#98ccd8;stroke-width:1.42705" />
      <path
         class="cls-5"
         d="m 249.5786,185.29481 c -0.17125,0.41385 -0.44237,0.62791 -1.04175,0.41385 -0.31396,-0.94185 0.29968,-1.42705 1.0703,-1.68393 a 1.0274812,1.0274812 0 0 1 0.34249,0.64218 0.92758712,0.92758712 0 0 1 -0.37103,0.6279 z"
         id="path44"
         style="fill:#9fcfdb;stroke-width:1.42705" />
      <path
         class="cls-6"
         d="m 249.5786,185.29481 v -0.65644 a 7.5491322,7.5491322 0 0 1 0.5851,-0.5851 c 0.71353,0.15696 0.67071,0.71354 0.68499,1.25581 h -1.28435 z"
         id="path46"
         style="fill:#bedfe5;stroke-width:1.42705" />
      <path
         class="cls-7"
         d="m 252.41845,185.58022 a 0.87050484,0.87050484 0 0 1 -0.0999,-1.09883 c 0.75633,0.31397 0.54227,0.69925 0.0999,1.09883 z"
         id="path48"
         style="fill:#aed6e0;stroke-width:1.42705" />
      <path
         class="cls-8"
         d="m 254.07383,184.66691 h 0.64218 c 0.38532,0 0.38532,0.45667 0.64218,0.64217 a 0.75634025,0.75634025 0 0 1 -0.64218,0.64218 0.42811715,0.42811715 0 0 1 -0.64218,0 v 0 a 0.89904601,0.89904601 0 0 1 0,-1.28435 z"
         id="path50"
         style="fill:#a9d4de;stroke-width:1.42705" />
      <path
         class="cls-9"
         d="m 262.46493,182.71184 c 0.49945,0.29967 0.77061,0.71353 0.19977,1.12737 -0.57081,0.41386 -0.72779,0 -0.8705,-0.4852 0.2426,-0.19979 0.28543,-0.59937 0.67071,-0.64218 z"
         id="path52"
         style="fill:#b7dbe3;stroke-width:1.42705" />
      <path
         class="cls-10"
         d="m 260.5384,186.60771 a 1.6411158,1.6411158 0 0 1 0.9704,-1.02749 c 0.49945,0.49945 0.19979,0.79916 -0.28542,1.02749 l -0.3425,0.27113 z"
         id="path54"
         style="fill:#bbdde4;stroke-width:1.42705" />
      <path
         class="cls-11"
         d="m 267.91629,187.07863 -0.74208,-0.68499 c 0.94187,-0.54227 0.98468,-0.157 0.74208,0.68499 z"
         id="path56"
         style="fill:#b6dbe3;stroke-width:1.42705" />
      <path
         class="cls-12"
         d="m 251.16264,178.45921 c 0.52802,-0.18554 0.78487,0 0.8705,0.29967 a 0.69925799,0.69925799 0 0 1 -0.21408,0.4852 c -0.35678,-0.0286 -0.57082,-0.27114 -0.65645,-0.78487 z"
         id="path58"
         style="fill:#e2f0f3;stroke-width:1.42705" />
      <path
         class="cls-13"
         d="m 255.7863,177.21767 c -0.52804,0.0999 -0.68499,-0.21408 -0.74207,-0.64218 0,0 0.15696,-0.17125 0.24261,-0.17125 0.49945,0.0426 0.7278,0.28543 0.49945,0.81343 z"
         id="path60"
         style="fill:#9acdd9;stroke-width:1.42705" />
      <path
         class="cls-14"
         d="m 266.88881,172.47984 c 0.55655,0.2426 0.84197,0.6279 0.27113,1.05603 -0.57083,0.42809 -0.71353,0 -0.85623,-0.47093 a 2.2832914,2.2832914 0 0 1 0.58509,-0.58508 z"
         id="path62"
         style="fill:#abd5de;stroke-width:1.42705" />
      <path
         class="cls-15"
         d="m 257.59866,170.25363 c -0.0714,-0.18554 -0.22831,-0.38532 -0.18553,-0.52804 0.0426,-0.14271 0.3282,-0.27113 0.39955,0 0.0714,0.27114 -0.12842,0.35679 -0.21407,0.52804 z"
         id="path64"
         style="fill:#aad5de;stroke-width:1.42705" />
      <path
         class="cls-16"
         d="m 246.65314,172.75098 c 0.2569,-0.28542 0.49945,-0.31396 0.7278,0 -0.25685,0.34249 -0.49945,0.35679 -0.7278,0 z"
         id="path66"
         style="fill:#a0d0dc;stroke-width:1.42705" />
      <path
         class="cls-17"
         d="m 247.93749,176.61831 c 0.25684,-0.28543 0.51374,-0.29967 0.7278,0 -0.2569,0.3282 -0.49945,0.3425 -0.7278,0 z"
         id="path68"
         style="fill:#c1e0e7;stroke-width:1.42705" />
      <path
         class="cls-18"
         d="m 260.5384,176.96081 c -0.52804,0 -1.07029,0 -1.27007,-0.65645 a 0.41384659,0.41384659 0 0 1 0.64217,0 h 0.6279 c 0.17125,0.14271 0.22831,0.28542 0.17125,0.44237 -0.0571,0.15696 -0.17125,0.21408 -0.17125,0.21408 z"
         id="path70"
         style="fill:#b5dae3;stroke-width:1.42705" />
      <path
         class="cls-8"
         d="m 260.5384,176.96081 v -0.65645 c 0.39956,0.12841 0.71354,0.41385 0.52804,0.79915 -0.18554,0.38531 -0.44239,0.0856 -0.52804,-0.14272 z"
         id="path72"
         style="fill:#a9d4de;stroke-width:1.42705" />
      <path
         class="cls-19"
         d="m 267.87348,176.61831 c 0.3282,0.22831 0.3282,0.47091 0,0.71352 -0.31397,-0.2426 -0.3282,-0.48521 0,-0.71352 z"
         id="path74"
         style="fill:#a7d4de;stroke-width:1.42705" />
      <path
         class="cls-20"
         d="m 266.61766,177.23194 c 0.29968,0.25684 0.31397,0.49945 0,0.7278 -0.37102,-0.2569 -0.37102,-0.49945 0,-0.7278 z"
         id="path76"
         style="fill:#afd7e0;stroke-width:1.42705" />
      <path
         class="cls-21"
         d="m 245.4116,179.22982 c -0.31396,-0.2426 -0.3282,-0.47091 0,-0.71353 0.31396,0.22832 0.3282,0.47092 0,0.71353 z"
         id="path78"
         style="fill:#a8d4de;stroke-width:1.42705" />
      <path
         class="cls-22"
         d="m 255.07278,179.82918 c -0.2426,0.3282 -0.47092,0.3282 -0.71354,0 0.22831,-0.35679 0.47092,-0.35679 0.71354,0 z"
         id="path80"
         style="fill:#99cdd9;stroke-width:1.42705" />
      <path
         class="cls-23"
         d="m 251.16264,188.22028 c -0.28544,-0.25685 -0.31396,-0.49945 0,-0.71352 0.34249,0.25683 0.35679,0.52802 0,0.71352 z"
         id="path82"
         style="fill:#9ecfdb;stroke-width:1.42705" />
      <path
         class="cls-8"
         d="m 260.5384,187.22134 c -0.11412,0.22832 -0.28542,0.57082 -0.49945,0.17124 -0.21406,-0.39955 0.0999,-0.67071 0.47093,-0.81342 v 0 c 0.14271,0.14272 0.19977,0.28543 0.14271,0.41386 -0.057,0.12841 -0.11413,0.2283 -0.11413,0.2283 z"
         id="path84"
         style="fill:#a9d4de;stroke-width:1.42705" />
      <path
         class="cls-24"
         d="m 251.79054,181.64154 c 0.31396,0.25685 0.38532,0.48522 0.0999,0.78489 -0.52802,-0.21407 -0.27112,-0.48521 -0.0999,-0.78489 z"
         id="path86"
         style="fill:#f5fafb;stroke-width:1.42705" />
      <path
         class="cls-25"
         d="m 262.46493,182.71184 a 0.84196368,0.84196368 0 0 1 -0.67072,0.64218 c 0.17125,-0.25685 -0.45667,-1.36998 0.67072,-0.64218 z"
         id="path88"
         style="fill:#ebf5f6;stroke-width:1.42705" />
      <path
         class="cls-26"
         d="m 259.85341,183.36828 c 0,-0.42809 0.3425,-0.69925 0.75634,-0.52802 0.41385,0.17123 0.12843,0.38531 -0.0999,0.54227 a 0.4423877,0.4423877 0 0 1 -0.65644,-0.014 z"
         id="path90"
         style="fill:#fefefe;stroke-width:1.42705" />
      <path
         class="cls-27"
         d="m 265.00509,184.65264 c 0.38532,0.14272 0.69926,0.41385 0.49945,0.81342 -0.19978,0.39956 -0.38531,0 -0.51374,-0.17125 -0.12842,-0.17124 -0.22831,-0.28543 -0.17125,-0.42809 0.057,-0.14271 0.12843,-0.21408 0.18554,-0.21408 z"
         id="path92"
         style="fill:#a5d3dd;stroke-width:1.42705" />
      <path
         class="cls-28"
         d="m 254.07383,184.66691 v 1.28435 c -0.7706,-0.42814 -0.79914,-0.85623 0,-1.28435 z"
         id="path94"
         style="fill:#c3e1e8;stroke-width:1.42705" />
      <path
         class="cls-29"
         d="m 246.08231,184.93806 c 0.28543,0.25683 0.31397,0.49943 0,0.72778 -0.34248,-0.25683 -0.37102,-0.4852 0,-0.72778 z"
         id="path96"
         style="fill:#bcdee5;stroke-width:1.42705" />
      <path
         class="cls-30"
         d="m 265.00509,184.65264 c 0,0.21407 0,0.42809 0,0.64217 -0.39955,-0.11413 -0.69925,-0.38532 -0.51374,-0.78488 0.18554,-0.39955 0.3282,-0.0856 0.51374,0.14271 z"
         id="path98"
         style="fill:#d3e9ee;stroke-width:1.42705" />
      <path
         class="cls-31"
         d="m 255.35819,185.29481 a 0.81342258,0.81342258 0 0 1 -0.64218,-0.64217 c 1.1131,-0.69926 0.41385,0.44238 0.64218,0.64217 z"
         id="path100"
         style="fill:#b5dbe3;stroke-width:1.42705" />
      <path
         class="cls-32"
         d="m 250.17796,184.05327 a 0.58509345,0.58509345 0 0 1 -0.58508,0.5851 2.8541143,2.8541143 0 0 1 0,-0.61364 2.5116205,2.5116205 0 0 1 0.58508,0.0286 z"
         id="path102"
         style="fill:#f3f9fa;stroke-width:1.42705" />
      <polygon
         class="cls-33"
         points="227.87,135.4 227.99,135.36 227.97,135.47 "
         id="polygon104"
         transform="matrix(1.4270571,0,0,1.4270571,-67.684731,-8.8991218)"
         style="fill:#a2d1dc" />
      <polygon
         class="cls-34"
         points="235.06,135.4 235.19,135.36 235.17,135.47 "
         id="polygon106"
         transform="matrix(1.4270571,0,0,1.4270571,-67.684731,-8.8991218)"
         style="fill:#a1d0dc" />
      <path
         class="cls-35"
         d="m 259.85341,183.36828 h 0.68499 c -0.25684,0.59938 -0.47091,0.68499 -0.68499,0 z"
         id="path108"
         style="fill:#eff6f8;stroke-width:1.42705" />
      <polygon
         class="cls-36"
         points="228.86,135.78 228.9,135.9 228.79,135.88 "
         id="polygon110"
         transform="matrix(1.4270571,0,0,1.4270571,-67.684731,-8.8991218)"
         style="fill:#a8d4df" />
      <polygon
         class="cls-37"
         points="218.87,136.3 218.99,136.26 218.97,136.37 "
         id="polygon112"
         transform="matrix(1.4270571,0,0,1.4270571,-67.684731,-8.8991218)"
         style="fill:#9dceda" />
      <path
         class="cls-38"
         d="m 250.86295,185.30908 0.44239,0.2569 c -0.42815,0.37103 -0.3282,-0.0999 -0.42815,-0.27114 z"
         id="path114"
         style="fill:#dcedf1;stroke-width:1.42705" />
      <path
         class="cls-39"
         d="m 254.07383,185.95126 h 0.64218 c -0.21407,0.65645 -0.42815,0.57082 -0.64218,0 z"
         id="path116"
         style="fill:#b2d9e2;stroke-width:1.42705" />
      <polygon
         class="cls-40"
         points="221.73,134.07 221.61,134.11 221.63,134 "
         id="polygon118"
         transform="matrix(1.4270571,0,0,1.4270571,-67.684731,-8.8991218)"
         style="fill:#add6df" />
      <path
         class="cls-41"
         d="m 260.5384,187.22134 c 0,-0.21407 0,-0.42808 0,-0.62791 h 0.62791 a 0.78488142,0.78488142 0 0 1 -0.62791,0.62791 z"
         id="path120"
         style="fill:#d5eaef;stroke-width:1.42705" />
      <polygon
         class="cls-17"
         points="222.53,137.74 222.49,137.62 222.61,137.63 "
         id="polygon122"
         transform="matrix(1.4270571,0,0,1.4270571,-67.684731,-8.8991218)"
         style="fill:#c1e0e7" />
      <polygon
         class="cls-42"
         points="229.31,131.27 229.36,131.4 229.23,131.38 "
         id="polygon124"
         transform="matrix(1.4270571,0,0,1.4270571,-67.684731,-8.8991218)"
         style="fill:#d0e7ed" />
      <polygon
         class="cls-40"
         points="231.99,130.54 231.94,130.42 232.06,130.44 "
         id="polygon126"
         transform="matrix(1.4270571,0,0,1.4270571,-67.684731,-8.8991218)"
         style="fill:#add6df" />
      <polygon
         class="cls-43"
         points="223.35,130.45 223.49,130.4 223.47,130.53 "
         id="polygon128"
         transform="matrix(1.4270571,0,0,1.4270571,-67.684731,-8.8991218)"
         style="fill:#d7ebf0" />
      <path
         class="cls-44"
         d="m 259.86769,176.30436 h -0.64218 c 0.2283,-0.62792 0.42809,-0.54229 0.64218,0 z"
         id="path130"
         style="fill:#c0e0e6;stroke-width:1.42705" />
      <polygon
         class="cls-45"
         points="222.91,129.55 223.04,129.5 223.02,129.62 "
         id="polygon132"
         transform="matrix(1.4270571,0,0,1.4270571,-67.684731,-8.8991218)"
         style="fill:#badce5" />
      <polygon
         class="cls-34"
         points="225.71,129.03 225.75,129.15 225.64,129.13 "
         id="polygon134"
         transform="matrix(1.4270571,0,0,1.4270571,-67.684731,-8.8991218)"
         style="fill:#a1d0dc" />
      <polygon
         class="cls-36"
         points="234.24,128.74 234.19,128.62 234.31,128.64 "
         id="polygon136"
         transform="matrix(1.4270571,0,0,1.4270571,-67.684731,-8.8991218)"
         style="fill:#a8d4df" />
      <path
         class="cls-46"
         d="m 270.12823,173.76419 0.44238,0.2426 c -0.42808,0.38533 -0.3282,-0.11425 -0.42808,-0.25683 z"
         id="path138"
         style="fill:#bfdfe6;stroke-width:1.42705" />
      <path
         class="cls-9"
         d="m 270.1425,173.76419 -0.44239,-0.24261 c 0.42809,-0.38531 0.31397,0.11425 0.42809,0.25685 z"
         id="path140"
         style="fill:#b7dbe3;stroke-width:1.42705" />
      <path
         class="cls-47"
         d="m 266.88881,172.47984 a 0.599364,0.599364 0 0 1 -0.5851,0.58509 4.195548,4.195548 0 0 1 0,-0.59936 h 0.5851 z"
         id="path142"
         style="fill:#e6f2f4;stroke-width:1.42705" />
      <path
         class="cls-48"
         d="m 266.24663,172.46557 -0.45668,-0.25685 c 0.44239,-0.38531 0.31396,0.14272 0.44239,0.27114 z"
         id="path144"
         style="fill:#b8dbe4;stroke-width:1.42705" />
      <polygon
         class="cls-37"
         points="235.23,125.97 235.11,126.01 235.13,125.9 "
         id="polygon146"
         transform="matrix(1.4270571,0,0,1.4270571,-67.684731,-8.8991218)"
         style="fill:#9dceda" />
      <polygon
         class="cls-49"
         points="218.96,125.43 219,125.55 218.89,125.53 "
         id="polygon148"
         transform="matrix(1.4270571,0,0,1.4270571,-67.684731,-8.8991218)"
         style="fill:#9fd0db" />
    </g>
  </g>
</svg>
